<svg width="221" height="80" fill="none" xmlns="http://www.w3.org/2000/svg"><g opacity=".92" filter="url(#filter0_d)"><mask id="a" maskUnits="userSpaceOnUse" x="4" y="0" width="213" height="72" fill="#000"><path fill="#fff" d="M4 0h213v72H4z"/><path fill-rule="evenodd" clip-rule="evenodd" d="M16 4a8 8 0 0 0-8 8v48a8 8 0 0 0 8 8h191l-15-15V12a8 8 0 0 0-8-8H16z"/></mask><path fill-rule="evenodd" clip-rule="evenodd" d="M16 4a8 8 0 0 0-8 8v48a8 8 0 0 0 8 8h191l-15-15V12a8 8 0 0 0-8-8H16z" fill="#E67E22"/><path d="M207 68v4h9.657l-6.829-6.828L207 68zm-15-15h-4v1.657l1.172 1.171L192 53zM12 12a4 4 0 0 1 4-4V0C9.373 0 4 5.373 4 12h8zm0 48V12H4v48h8zm4 4a4 4 0 0 1-4-4H4c0 6.627 5.373 12 12 12v-8zm171 0H16v8h171v-8zm5 0h-5v8h5v-8zm15 0h-15v8h15v-8zm-17.828-8.172l15 15 5.656-5.656-15-15-5.656 5.656zM188 12v41h8V12h-8zm-4-4a4 4 0 0 1 4 4h8c0-6.627-5.373-12-12-12v8zM16 8h168V0H16v8z" fill="#fff" fill-opacity=".2" mask="url(#a)"/></g><defs><filter id="filter0_d" x="0" y="0" width="220.657" height="80" filterUnits="userSpaceOnUse" color-interpolation-filters="sRGB"><feFlood flood-opacity="0" result="BackgroundImageFix"/><feColorMatrix in="SourceAlpha" values="0 0 0 0 0 0 0 0 0 0 0 0 0 0 0 0 0 0 127 0"/><feOffset dy="4"/><feGaussianBlur stdDeviation="2"/><feColorMatrix values="0 0 0 0 0 0 0 0 0 0 0 0 0 0 0 0 0 0 0.25 0"/><feBlend in2="BackgroundImageFix" result="effect1_dropShadow"/><feBlend in="SourceGraphic" in2="effect1_dropShadow" result="shape"/></filter></defs></svg>