<svg id="Слой_1" xmlns="http://www.w3.org/2000/svg" viewBox="0 0 216 64"><style>.st0{fill-rule:evenodd;clip-rule:evenodd}.st0,.st1{fill:#fff}.st2{font-family:&amp;apos;Calibri&amp;apos;}.st3{font-size:7.6552px}.st4{fill-rule:evenodd;clip-rule:evenodd;fill:#129432}</style><path class="st0" d="M5-.1c-2.3 0-5 .4-5 2.7 0 1 .6 1.9 1.6 2.5v23.3h5.7V4.2h9.5v24.2h5.7V-.1H5zm30.2 28.9c5.4 0 9-3.5 9-10.5 0-7.2-3.7-10.6-9-10.6-5.2 0-9 3.3-9 10.6.1 7.1 3.7 10.5 9 10.5zm0-3.8c-2.1 0-3.4-2.1-3.4-6.6s1.3-6.7 3.4-6.7c2.1 0 3.4 2.1 3.4 6.7S37.3 25 35.2 25zM52.9 8.5c-2 0-5.3.2-5.3 2.8 0 .8.5 1.6 1.6 2.3 0 5-.3 8.2-1.2 9.8-.6 1-1.5 1.4-2.7 1.4v4c3.2 0 5-.8 6.4-2.7 1.8-2.4 2.3-6.6 2.3-13.5h3.4v15.7H63V8.5H52.9zm23 16.5c-3.1 0-4.5-2.2-4.5-6H83v-1.2c0-6.3-2.9-10-8.1-10-6 0-9 4.5-9 10.6 0 6.6 3 10.5 9.3 10.5 3.1 0 5.3-.9 7.1-2.1l-.3-4.3c-2 1.6-3.9 2.5-6.1 2.5zM75 11.6c1.6 0 2.9 1.3 3 4.3h-6.4c.2-2.4 1.3-4.3 3.4-4.3zm9.8 15.5c2.5 1.4 4.7 1.8 6.7 1.8 5.7 0 8.4-3 8.4-6.2 0-3.1-1.7-4.4-3.9-4.7v-.3c2.4-.6 3.4-2.7 3.4-4.7 0-3-2.1-5.2-7.1-5.2-2.7 0-5.1.6-7.2 1.8l.4 4.2c1.8-1.3 3.5-2.2 5.7-2.2 1.8 0 2.9.7 2.9 2.2 0 1.9-1.6 2.3-3.2 2.3h-2.5V20h2.7c1.4 0 3.3 0 3.3 2.1 0 1.8-1.4 2.9-3.5 2.9-2.2 0-3.6-.7-5.6-2.1l-.5 4.2zm24.3-18.6h-1.8c-2 0-5.3.2-5.3 2.8 0 .8.5 1.6 1.6 2.3v14.8h5.6v-7.8h5.7v7.8h5.6V8.5h-5.6v7.9h-5.7V8.5h-.1zm32.7 19.9h5.6V8.5h-5.6v19.9zm-11.4-12.9v-7h-1.9c-2 0-5.2.2-5.2 2.8 0 .8.5 1.6 1.6 2.3v14.8h8.4c3.7 0 6.7-2.2 6.7-6.8 0-3.7-2-6.1-7.1-6.1h-2.5zm-.1 9.2v-5.4h1.9c1.4 0 2.5 1 2.5 2.7 0 1.7-1 2.7-2.5 2.7h-1.9zm30 .3c-3.1 0-4.5-2.2-4.5-6h11.6v-1.2c0-6.3-2.9-10-8.1-10-6 0-9 4.5-9 10.6 0 6.6 3 10.5 9.3 10.5 3.1 0 5.3-.9 7.1-2.1l-.3-4.3c-2 1.6-3.9 2.5-6.1 2.5zm-.9-13.4c1.6 0 2.9 1.3 3 4.3H156c.3-2.4 1.4-4.3 3.4-4.3zM6.9 36.3c-1.9 0-5.2.2-5.2 2.7 0 .8.5 1.6 1.5 2.3v14.3h5.4V40.4H14v15.2h5.4V36.3H6.9zm17.4 27.2h5.4v-8.7c1 .6 2.2 1.2 4.2 1.2 4.4 0 7-3.7 7-10.4 0-6.8-3-9.8-8-9.8-2.1 0-4.7.4-7 1.5-1.5.7-3.2 2-3.2 3.4 0 .8.5 1.6 1.5 2.4v20.4h.1zm5.3-23.3c.8-.6 1.8-.8 2.5-.8 2.2 0 3.3 1.8 3.3 6 0 5.1-1 6.7-2.9 6.7-1 0-2-.3-2.9-1.1V40.2zm22.8 15.9c5.2 0 8.7-3.4 8.7-10.2 0-7-3.6-10.3-8.7-10.3s-8.7 3.2-8.7 10.3c0 6.9 3.5 10.2 8.7 10.2zm0-3.7c-2.1 0-3.3-2-3.3-6.4s1.3-6.5 3.3-6.5c2 0 3.3 2.1 3.3 6.5s-1.3 6.4-3.3 6.4zm18.3-16.1c-1.9 0-5.2.2-5.2 2.7 0 .8.5 1.6 1.5 2.3-.3 5.6-1.1 8.5-2.3 10.2h-1.9v9.3h4.6v-5.2h10.1v5.2H82v-9.3h-2V36.3h-9.3zm4.1 15.5h-5.2c1.4-2.6 1.8-8 1.8-11.5h3.4v11.5zM91 36.3h-1c-1.9 0-5.9.2-5.9 2.7 0 .8.5 1.6 1.5 2.3v7.8c0 5 2.1 6.9 5.5 6.9 2.6 0 4.5-1.5 5.2-2.3v1.8c0 3.5-2 4.8-4.8 4.8-1.6 0-3-.5-4.4-1.1l-.6 3.9c1.7.5 3.7.9 5.6.9 4.8 0 9.6-2 9.6-9.1V36.3h-5.4v14.1c-.5.6-1.4 1.3-2.9 1.3s-2.5-.8-2.5-3.6V36.3h.1zm21.2 0h-1.7c-1.9 0-5.2.2-5.2 2.7 0 .8.5 1.6 1.5 2.3v14.3h5.4v-7.8h.8c3.6 0 10.2 21.4 22 15.1l.1-4c-7.6 5.1-13-12.1-17.7-12.9v-.4c2.3-.9 2-5.4 4.5-5.4.4 0 1 .2 1.4.4v-4c-.6-.4-1.7-.7-2.5-.7-5.7 0-5 7.9-7.9 7.9h-.8v-7.5h.1zm12.5 4.1v-4.1h15.7v4.1h-5.1v15.2h-5.4V40.4h-5.2zm35.1 15.3h5.4V36.3h-5.4v19.4zm-11-12.6v-6.8H147c-1.9 0-5.1.2-5.1 2.7 0 .8.5 1.6 1.5 2.3v14.3h8.1c3.6 0 6.5-2.1 6.5-6.6 0-3.5-2-5.9-6.9-5.9h-2.3zm-.1 9v-5.3h1.9c1.4 0 2.4 1 2.4 2.7 0 1.6-1 2.6-2.4 2.6h-1.9z"/><text transform="translate(171.131 10.27)" class="st1 st2 st3">тм</text><path class="st4" d="M173 55.5c1.6-.6 6.2-1.9 8.3-2.8 16.7-7.3 44.5-20.6 26-48.5 7.9 21.3-7.1 32.8-24.6 41.3 2.8-7 9.1-29.4 22-39.8-14.5 8.3-23.2 25.4-26 39.2-1.9-9.7-2.6-34 20.1-38.9-33.1 4.7-23.5 40.3-25.8 49.5zm7.4.2c18.2-9.6 29.5-14.6 34.9-1.8-13.9 4.2-12.5-4.5-34.9 1.8z"/></svg>